<?xml version="1.0" encoding="utf-8" standalone="no"?>
<!DOCTYPE svg PUBLIC "-//W3C//DTD SVG 1.1//EN"
  "http://www.w3.org/Graphics/SVG/1.1/DTD/svg11.dtd">
<svg xmlns:xlink="http://www.w3.org/1999/xlink" width="432pt" height="288pt" viewBox="0 0 432 288" xmlns="http://www.w3.org/2000/svg" version="1.1">
 <metadata>
  <rdf:RDF xmlns:dc="http://purl.org/dc/elements/1.1/" xmlns:cc="http://creativecommons.org/ns#" xmlns:rdf="http://www.w3.org/1999/02/22-rdf-syntax-ns#">
   <cc:Work>
    <dc:type rdf:resource="http://purl.org/dc/dcmitype/StillImage"/>
    <dc:date>2022-01-28T20:49:17.537263</dc:date>
    <dc:format>image/svg+xml</dc:format>
    <dc:creator>
     <cc:Agent>
      <dc:title>Matplotlib v3.5.0.dev2464+g95463c32e6, https://matplotlib.org/</dc:title>
     </cc:Agent>
    </dc:creator>
   </cc:Work>
  </rdf:RDF>
 </metadata>
 <defs>
  <style type="text/css">*{stroke-linejoin: round; stroke-linecap: butt}</style>
 </defs>
 <g id="figure_1">
  <g id="patch_1">
   <path d="M 0 288 
L 432 288 
L 432 0 
L 0 0 
z
" style="fill: #ffffff"/>
  </g>
  <g id="axes_1">
   <g id="patch_2">
    <path d="M 51.8 242.4 
L 421.2 242.4 
L 421.2 24.8 
L 51.8 24.8 
z
" style="fill: #ffffff"/>
   </g>
   <g id="matplotlib.axis_1">
    <g id="xtick_1">
     <g id="line2d_1">
      <path d="M 68.590909 242.4 
L 68.590909 24.8 
" clip-path="url(#pa3be94a532)" style="fill: none; stroke: #b0b0b0; stroke-width: 0.8; stroke-linecap: square"/>
     </g>
     <g id="line2d_2">
      <defs>
       <path id="m2f3e814af6" d="M 0 0 
L 0 3.5 
" style="stroke: #000000; stroke-width: 0.8"/>
      </defs>
      <g>
       <use xlink:href="#m2f3e814af6" x="68.590909" y="242.4" style="stroke: #000000; stroke-width: 0.8"/>
      </g>
     </g>
     <g id="text_1">
      <!-- 1.0 -->
      <g transform="translate(60.639347 256.998438)scale(0.1 -0.1)">
       <defs>
        <path id="DejaVuSans-31" d="M 794 531 
L 1825 531 
L 1825 4091 
L 703 3866 
L 703 4441 
L 1819 4666 
L 2450 4666 
L 2450 531 
L 3481 531 
L 3481 0 
L 794 0 
L 794 531 
z
" transform="scale(0.015625)"/>
        <path id="DejaVuSans-2e" d="M 684 794 
L 1344 794 
L 1344 0 
L 684 0 
L 684 794 
z
" transform="scale(0.015625)"/>
        <path id="DejaVuSans-30" d="M 2034 4250 
Q 1547 4250 1301 3770 
Q 1056 3291 1056 2328 
Q 1056 1369 1301 889 
Q 1547 409 2034 409 
Q 2525 409 2770 889 
Q 3016 1369 3016 2328 
Q 3016 3291 2770 3770 
Q 2525 4250 2034 4250 
z
M 2034 4750 
Q 2819 4750 3233 4129 
Q 3647 3509 3647 2328 
Q 3647 1150 3233 529 
Q 2819 -91 2034 -91 
Q 1250 -91 836 529 
Q 422 1150 422 2328 
Q 422 3509 836 4129 
Q 1250 4750 2034 4750 
z
" transform="scale(0.015625)"/>
       </defs>
       <use xlink:href="#DejaVuSans-31"/>
       <use xlink:href="#DejaVuSans-2e" x="63.623047"/>
       <use xlink:href="#DejaVuSans-30" x="95.410156"/>
      </g>
     </g>
    </g>
    <g id="xtick_2">
     <g id="line2d_3">
      <path d="M 135.754545 242.4 
L 135.754545 24.8 
" clip-path="url(#pa3be94a532)" style="fill: none; stroke: #b0b0b0; stroke-width: 0.8; stroke-linecap: square"/>
     </g>
     <g id="line2d_4">
      <g>
       <use xlink:href="#m2f3e814af6" x="135.754545" y="242.4" style="stroke: #000000; stroke-width: 0.8"/>
      </g>
     </g>
     <g id="text_2">
      <!-- 1.2 -->
      <g transform="translate(127.802983 256.998438)scale(0.1 -0.1)">
       <defs>
        <path id="DejaVuSans-32" d="M 1228 531 
L 3431 531 
L 3431 0 
L 469 0 
L 469 531 
Q 828 903 1448 1529 
Q 2069 2156 2228 2338 
Q 2531 2678 2651 2914 
Q 2772 3150 2772 3378 
Q 2772 3750 2511 3984 
Q 2250 4219 1831 4219 
Q 1534 4219 1204 4116 
Q 875 4013 500 3803 
L 500 4441 
Q 881 4594 1212 4672 
Q 1544 4750 1819 4750 
Q 2544 4750 2975 4387 
Q 3406 4025 3406 3419 
Q 3406 3131 3298 2873 
Q 3191 2616 2906 2266 
Q 2828 2175 2409 1742 
Q 1991 1309 1228 531 
z
" transform="scale(0.015625)"/>
       </defs>
       <use xlink:href="#DejaVuSans-31"/>
       <use xlink:href="#DejaVuSans-2e" x="63.623047"/>
       <use xlink:href="#DejaVuSans-32" x="95.410156"/>
      </g>
     </g>
    </g>
    <g id="xtick_3">
     <g id="line2d_5">
      <path d="M 202.918182 242.4 
L 202.918182 24.8 
" clip-path="url(#pa3be94a532)" style="fill: none; stroke: #b0b0b0; stroke-width: 0.8; stroke-linecap: square"/>
     </g>
     <g id="line2d_6">
      <g>
       <use xlink:href="#m2f3e814af6" x="202.918182" y="242.4" style="stroke: #000000; stroke-width: 0.8"/>
      </g>
     </g>
     <g id="text_3">
      <!-- 1.4 -->
      <g transform="translate(194.966619 256.998438)scale(0.1 -0.1)">
       <defs>
        <path id="DejaVuSans-34" d="M 2419 4116 
L 825 1625 
L 2419 1625 
L 2419 4116 
z
M 2253 4666 
L 3047 4666 
L 3047 1625 
L 3713 1625 
L 3713 1100 
L 3047 1100 
L 3047 0 
L 2419 0 
L 2419 1100 
L 313 1100 
L 313 1709 
L 2253 4666 
z
" transform="scale(0.015625)"/>
       </defs>
       <use xlink:href="#DejaVuSans-31"/>
       <use xlink:href="#DejaVuSans-2e" x="63.623047"/>
       <use xlink:href="#DejaVuSans-34" x="95.410156"/>
      </g>
     </g>
    </g>
    <g id="xtick_4">
     <g id="line2d_7">
      <path d="M 270.081818 242.4 
L 270.081818 24.8 
" clip-path="url(#pa3be94a532)" style="fill: none; stroke: #b0b0b0; stroke-width: 0.8; stroke-linecap: square"/>
     </g>
     <g id="line2d_8">
      <g>
       <use xlink:href="#m2f3e814af6" x="270.081818" y="242.4" style="stroke: #000000; stroke-width: 0.8"/>
      </g>
     </g>
     <g id="text_4">
      <!-- 1.6 -->
      <g transform="translate(262.130256 256.998438)scale(0.1 -0.1)">
       <defs>
        <path id="DejaVuSans-36" d="M 2113 2584 
Q 1688 2584 1439 2293 
Q 1191 2003 1191 1497 
Q 1191 994 1439 701 
Q 1688 409 2113 409 
Q 2538 409 2786 701 
Q 3034 994 3034 1497 
Q 3034 2003 2786 2293 
Q 2538 2584 2113 2584 
z
M 3366 4563 
L 3366 3988 
Q 3128 4100 2886 4159 
Q 2644 4219 2406 4219 
Q 1781 4219 1451 3797 
Q 1122 3375 1075 2522 
Q 1259 2794 1537 2939 
Q 1816 3084 2150 3084 
Q 2853 3084 3261 2657 
Q 3669 2231 3669 1497 
Q 3669 778 3244 343 
Q 2819 -91 2113 -91 
Q 1303 -91 875 529 
Q 447 1150 447 2328 
Q 447 3434 972 4092 
Q 1497 4750 2381 4750 
Q 2619 4750 2861 4703 
Q 3103 4656 3366 4563 
z
" transform="scale(0.015625)"/>
       </defs>
       <use xlink:href="#DejaVuSans-31"/>
       <use xlink:href="#DejaVuSans-2e" x="63.623047"/>
       <use xlink:href="#DejaVuSans-36" x="95.410156"/>
      </g>
     </g>
    </g>
    <g id="xtick_5">
     <g id="line2d_9">
      <path d="M 337.245455 242.4 
L 337.245455 24.8 
" clip-path="url(#pa3be94a532)" style="fill: none; stroke: #b0b0b0; stroke-width: 0.8; stroke-linecap: square"/>
     </g>
     <g id="line2d_10">
      <g>
       <use xlink:href="#m2f3e814af6" x="337.245455" y="242.4" style="stroke: #000000; stroke-width: 0.8"/>
      </g>
     </g>
     <g id="text_5">
      <!-- 1.8 -->
      <g transform="translate(329.293892 256.998438)scale(0.1 -0.1)">
       <defs>
        <path id="DejaVuSans-38" d="M 2034 2216 
Q 1584 2216 1326 1975 
Q 1069 1734 1069 1313 
Q 1069 891 1326 650 
Q 1584 409 2034 409 
Q 2484 409 2743 651 
Q 3003 894 3003 1313 
Q 3003 1734 2745 1975 
Q 2488 2216 2034 2216 
z
M 1403 2484 
Q 997 2584 770 2862 
Q 544 3141 544 3541 
Q 544 4100 942 4425 
Q 1341 4750 2034 4750 
Q 2731 4750 3128 4425 
Q 3525 4100 3525 3541 
Q 3525 3141 3298 2862 
Q 3072 2584 2669 2484 
Q 3125 2378 3379 2068 
Q 3634 1759 3634 1313 
Q 3634 634 3220 271 
Q 2806 -91 2034 -91 
Q 1263 -91 848 271 
Q 434 634 434 1313 
Q 434 1759 690 2068 
Q 947 2378 1403 2484 
z
M 1172 3481 
Q 1172 3119 1398 2916 
Q 1625 2713 2034 2713 
Q 2441 2713 2670 2916 
Q 2900 3119 2900 3481 
Q 2900 3844 2670 4047 
Q 2441 4250 2034 4250 
Q 1625 4250 1398 4047 
Q 1172 3844 1172 3481 
z
" transform="scale(0.015625)"/>
       </defs>
       <use xlink:href="#DejaVuSans-31"/>
       <use xlink:href="#DejaVuSans-2e" x="63.623047"/>
       <use xlink:href="#DejaVuSans-38" x="95.410156"/>
      </g>
     </g>
    </g>
    <g id="xtick_6">
     <g id="line2d_11">
      <path d="M 404.409091 242.4 
L 404.409091 24.8 
" clip-path="url(#pa3be94a532)" style="fill: none; stroke: #b0b0b0; stroke-width: 0.8; stroke-linecap: square"/>
     </g>
     <g id="line2d_12">
      <g>
       <use xlink:href="#m2f3e814af6" x="404.409091" y="242.4" style="stroke: #000000; stroke-width: 0.8"/>
      </g>
     </g>
     <g id="text_6">
      <!-- 2.0 -->
      <g transform="translate(396.457528 256.998438)scale(0.1 -0.1)">
       <use xlink:href="#DejaVuSans-32"/>
       <use xlink:href="#DejaVuSans-2e" x="63.623047"/>
       <use xlink:href="#DejaVuSans-30" x="95.410156"/>
      </g>
     </g>
    </g>
    <g id="text_7">
     <!-- stretch $\lambda_1 \quad \longrightarrow$ -->
     <g transform="translate(198 270.676562)scale(0.1 -0.1)">
      <defs>
       <path id="DejaVuSans-73" d="M 2834 3397 
L 2834 2853 
Q 2591 2978 2328 3040 
Q 2066 3103 1784 3103 
Q 1356 3103 1142 2972 
Q 928 2841 928 2578 
Q 928 2378 1081 2264 
Q 1234 2150 1697 2047 
L 1894 2003 
Q 2506 1872 2764 1633 
Q 3022 1394 3022 966 
Q 3022 478 2636 193 
Q 2250 -91 1575 -91 
Q 1294 -91 989 -36 
Q 684 19 347 128 
L 347 722 
Q 666 556 975 473 
Q 1284 391 1588 391 
Q 1994 391 2212 530 
Q 2431 669 2431 922 
Q 2431 1156 2273 1281 
Q 2116 1406 1581 1522 
L 1381 1569 
Q 847 1681 609 1914 
Q 372 2147 372 2553 
Q 372 3047 722 3315 
Q 1072 3584 1716 3584 
Q 2034 3584 2315 3537 
Q 2597 3491 2834 3397 
z
" transform="scale(0.015625)"/>
       <path id="DejaVuSans-74" d="M 1172 4494 
L 1172 3500 
L 2356 3500 
L 2356 3053 
L 1172 3053 
L 1172 1153 
Q 1172 725 1289 603 
Q 1406 481 1766 481 
L 2356 481 
L 2356 0 
L 1766 0 
Q 1100 0 847 248 
Q 594 497 594 1153 
L 594 3053 
L 172 3053 
L 172 3500 
L 594 3500 
L 594 4494 
L 1172 4494 
z
" transform="scale(0.015625)"/>
       <path id="DejaVuSans-72" d="M 2631 2963 
Q 2534 3019 2420 3045 
Q 2306 3072 2169 3072 
Q 1681 3072 1420 2755 
Q 1159 2438 1159 1844 
L 1159 0 
L 581 0 
L 581 3500 
L 1159 3500 
L 1159 2956 
Q 1341 3275 1631 3429 
Q 1922 3584 2338 3584 
Q 2397 3584 2469 3576 
Q 2541 3569 2628 3553 
L 2631 2963 
z
" transform="scale(0.015625)"/>
       <path id="DejaVuSans-65" d="M 3597 1894 
L 3597 1613 
L 953 1613 
Q 991 1019 1311 708 
Q 1631 397 2203 397 
Q 2534 397 2845 478 
Q 3156 559 3463 722 
L 3463 178 
Q 3153 47 2828 -22 
Q 2503 -91 2169 -91 
Q 1331 -91 842 396 
Q 353 884 353 1716 
Q 353 2575 817 3079 
Q 1281 3584 2069 3584 
Q 2775 3584 3186 3129 
Q 3597 2675 3597 1894 
z
M 3022 2063 
Q 3016 2534 2758 2815 
Q 2500 3097 2075 3097 
Q 1594 3097 1305 2825 
Q 1016 2553 972 2059 
L 3022 2063 
z
" transform="scale(0.015625)"/>
       <path id="DejaVuSans-63" d="M 3122 3366 
L 3122 2828 
Q 2878 2963 2633 3030 
Q 2388 3097 2138 3097 
Q 1578 3097 1268 2742 
Q 959 2388 959 1747 
Q 959 1106 1268 751 
Q 1578 397 2138 397 
Q 2388 397 2633 464 
Q 2878 531 3122 666 
L 3122 134 
Q 2881 22 2623 -34 
Q 2366 -91 2075 -91 
Q 1284 -91 818 406 
Q 353 903 353 1747 
Q 353 2603 823 3093 
Q 1294 3584 2113 3584 
Q 2378 3584 2631 3529 
Q 2884 3475 3122 3366 
z
" transform="scale(0.015625)"/>
       <path id="DejaVuSans-68" d="M 3513 2113 
L 3513 0 
L 2938 0 
L 2938 2094 
Q 2938 2591 2744 2837 
Q 2550 3084 2163 3084 
Q 1697 3084 1428 2787 
Q 1159 2491 1159 1978 
L 1159 0 
L 581 0 
L 581 4863 
L 1159 4863 
L 1159 2956 
Q 1366 3272 1645 3428 
Q 1925 3584 2291 3584 
Q 2894 3584 3203 3211 
Q 3513 2838 3513 2113 
z
" transform="scale(0.015625)"/>
       <path id="DejaVuSans-20" transform="scale(0.015625)"/>
       <path id="DejaVuSans-Oblique-3bb" d="M 2350 4316 
L 3125 0 
L 2516 0 
L 2038 2588 
L 328 0 
L -281 0 
L 1903 3356 
L 1794 3975 
Q 1725 4369 1391 4369 
L 1091 4369 
L 1184 4863 
L 1550 4856 
Q 2253 4847 2350 4316 
z
" transform="scale(0.015625)"/>
       <path id="DejaVuSans-27f6" d="M 8863 2147 
L 8863 1866 
L 7634 638 
L 7259 1013 
L 7988 1741 
L 366 1741 
L 366 2272 
L 7988 2272 
L 7259 3000 
L 7634 3375 
L 8863 2147 
z
" transform="scale(0.015625)"/>
      </defs>
      <use xlink:href="#DejaVuSans-73" transform="translate(0 0.015625)"/>
      <use xlink:href="#DejaVuSans-74" transform="translate(52.099609 0.015625)"/>
      <use xlink:href="#DejaVuSans-72" transform="translate(91.308594 0.015625)"/>
      <use xlink:href="#DejaVuSans-65" transform="translate(132.421875 0.015625)"/>
      <use xlink:href="#DejaVuSans-74" transform="translate(193.945312 0.015625)"/>
      <use xlink:href="#DejaVuSans-63" transform="translate(233.154297 0.015625)"/>
      <use xlink:href="#DejaVuSans-68" transform="translate(288.134766 0.015625)"/>
      <use xlink:href="#DejaVuSans-20" transform="translate(351.513672 0.015625)"/>
      <use xlink:href="#DejaVuSans-Oblique-3bb" transform="translate(383.300781 0.015625)"/>
      <use xlink:href="#DejaVuSans-31" transform="translate(442.480469 -16.390625)scale(0.7)"/>
      <use xlink:href="#DejaVuSans-27f6" transform="translate(606.645508 0.015625)"/>
     </g>
    </g>
   </g>
   <g id="matplotlib.axis_2">
    <g id="ytick_1">
     <g id="line2d_13">
      <path d="M 51.8 232.509091 
L 421.2 232.509091 
" clip-path="url(#pa3be94a532)" style="fill: none; stroke: #b0b0b0; stroke-width: 0.8; stroke-linecap: square"/>
     </g>
     <g id="line2d_14">
      <defs>
       <path id="m19dbd984e7" d="M 0 0 
L -3.5 0 
" style="stroke: #000000; stroke-width: 0.8"/>
      </defs>
      <g>
       <use xlink:href="#m19dbd984e7" x="51.8" y="232.509091" style="stroke: #000000; stroke-width: 0.8"/>
      </g>
     </g>
     <g id="text_8">
      <!-- 0.0 -->
      <g transform="translate(28.896875 236.30831)scale(0.1 -0.1)">
       <use xlink:href="#DejaVuSans-30"/>
       <use xlink:href="#DejaVuSans-2e" x="63.623047"/>
       <use xlink:href="#DejaVuSans-30" x="95.410156"/>
      </g>
     </g>
    </g>
    <g id="ytick_2">
     <g id="line2d_15">
      <path d="M 51.8 193.247647 
L 421.2 193.247647 
" clip-path="url(#pa3be94a532)" style="fill: none; stroke: #b0b0b0; stroke-width: 0.8; stroke-linecap: square"/>
     </g>
     <g id="line2d_16">
      <g>
       <use xlink:href="#m19dbd984e7" x="51.8" y="193.247647" style="stroke: #000000; stroke-width: 0.8"/>
      </g>
     </g>
     <g id="text_9">
      <!-- 0.5 -->
      <g transform="translate(28.896875 197.046866)scale(0.1 -0.1)">
       <defs>
        <path id="DejaVuSans-35" d="M 691 4666 
L 3169 4666 
L 3169 4134 
L 1269 4134 
L 1269 2991 
Q 1406 3038 1543 3061 
Q 1681 3084 1819 3084 
Q 2600 3084 3056 2656 
Q 3513 2228 3513 1497 
Q 3513 744 3044 326 
Q 2575 -91 1722 -91 
Q 1428 -91 1123 -41 
Q 819 9 494 109 
L 494 744 
Q 775 591 1075 516 
Q 1375 441 1709 441 
Q 2250 441 2565 725 
Q 2881 1009 2881 1497 
Q 2881 1984 2565 2268 
Q 2250 2553 1709 2553 
Q 1456 2553 1204 2497 
Q 953 2441 691 2322 
L 691 4666 
z
" transform="scale(0.015625)"/>
       </defs>
       <use xlink:href="#DejaVuSans-30"/>
       <use xlink:href="#DejaVuSans-2e" x="63.623047"/>
       <use xlink:href="#DejaVuSans-35" x="95.410156"/>
      </g>
     </g>
    </g>
    <g id="ytick_3">
     <g id="line2d_17">
      <path d="M 51.8 153.986203 
L 421.2 153.986203 
" clip-path="url(#pa3be94a532)" style="fill: none; stroke: #b0b0b0; stroke-width: 0.8; stroke-linecap: square"/>
     </g>
     <g id="line2d_18">
      <g>
       <use xlink:href="#m19dbd984e7" x="51.8" y="153.986203" style="stroke: #000000; stroke-width: 0.8"/>
      </g>
     </g>
     <g id="text_10">
      <!-- 1.0 -->
      <g transform="translate(28.896875 157.785422)scale(0.1 -0.1)">
       <use xlink:href="#DejaVuSans-31"/>
       <use xlink:href="#DejaVuSans-2e" x="63.623047"/>
       <use xlink:href="#DejaVuSans-30" x="95.410156"/>
      </g>
     </g>
    </g>
    <g id="ytick_4">
     <g id="line2d_19">
      <path d="M 51.8 114.724759 
L 421.2 114.724759 
" clip-path="url(#pa3be94a532)" style="fill: none; stroke: #b0b0b0; stroke-width: 0.8; stroke-linecap: square"/>
     </g>
     <g id="line2d_20">
      <g>
       <use xlink:href="#m19dbd984e7" x="51.8" y="114.724759" style="stroke: #000000; stroke-width: 0.8"/>
      </g>
     </g>
     <g id="text_11">
      <!-- 1.5 -->
      <g transform="translate(28.896875 118.523978)scale(0.1 -0.1)">
       <use xlink:href="#DejaVuSans-31"/>
       <use xlink:href="#DejaVuSans-2e" x="63.623047"/>
       <use xlink:href="#DejaVuSans-35" x="95.410156"/>
      </g>
     </g>
    </g>
    <g id="ytick_5">
     <g id="line2d_21">
      <path d="M 51.8 75.463315 
L 421.2 75.463315 
" clip-path="url(#pa3be94a532)" style="fill: none; stroke: #b0b0b0; stroke-width: 0.8; stroke-linecap: square"/>
     </g>
     <g id="line2d_22">
      <g>
       <use xlink:href="#m19dbd984e7" x="51.8" y="75.463315" style="stroke: #000000; stroke-width: 0.8"/>
      </g>
     </g>
     <g id="text_12">
      <!-- 2.0 -->
      <g transform="translate(28.896875 79.262534)scale(0.1 -0.1)">
       <use xlink:href="#DejaVuSans-32"/>
       <use xlink:href="#DejaVuSans-2e" x="63.623047"/>
       <use xlink:href="#DejaVuSans-30" x="95.410156"/>
      </g>
     </g>
    </g>
    <g id="ytick_6">
     <g id="line2d_23">
      <path d="M 51.8 36.201871 
L 421.2 36.201871 
" clip-path="url(#pa3be94a532)" style="fill: none; stroke: #b0b0b0; stroke-width: 0.8; stroke-linecap: square"/>
     </g>
     <g id="line2d_24">
      <g>
       <use xlink:href="#m19dbd984e7" x="51.8" y="36.201871" style="stroke: #000000; stroke-width: 0.8"/>
      </g>
     </g>
     <g id="text_13">
      <!-- 2.5 -->
      <g transform="translate(28.896875 40.00109)scale(0.1 -0.1)">
       <use xlink:href="#DejaVuSans-32"/>
       <use xlink:href="#DejaVuSans-2e" x="63.623047"/>
       <use xlink:href="#DejaVuSans-35" x="95.410156"/>
      </g>
     </g>
    </g>
    <g id="text_14">
     <!-- force per undeformed area $P_{11} \quad \longrightarrow$ -->
     <g transform="translate(22.796875 224.4)rotate(-90)scale(0.1 -0.1)">
      <defs>
       <path id="DejaVuSans-66" d="M 2375 4863 
L 2375 4384 
L 1825 4384 
Q 1516 4384 1395 4259 
Q 1275 4134 1275 3809 
L 1275 3500 
L 2222 3500 
L 2222 3053 
L 1275 3053 
L 1275 0 
L 697 0 
L 697 3053 
L 147 3053 
L 147 3500 
L 697 3500 
L 697 3744 
Q 697 4328 969 4595 
Q 1241 4863 1831 4863 
L 2375 4863 
z
" transform="scale(0.015625)"/>
       <path id="DejaVuSans-6f" d="M 1959 3097 
Q 1497 3097 1228 2736 
Q 959 2375 959 1747 
Q 959 1119 1226 758 
Q 1494 397 1959 397 
Q 2419 397 2687 759 
Q 2956 1122 2956 1747 
Q 2956 2369 2687 2733 
Q 2419 3097 1959 3097 
z
M 1959 3584 
Q 2709 3584 3137 3096 
Q 3566 2609 3566 1747 
Q 3566 888 3137 398 
Q 2709 -91 1959 -91 
Q 1206 -91 779 398 
Q 353 888 353 1747 
Q 353 2609 779 3096 
Q 1206 3584 1959 3584 
z
" transform="scale(0.015625)"/>
       <path id="DejaVuSans-70" d="M 1159 525 
L 1159 -1331 
L 581 -1331 
L 581 3500 
L 1159 3500 
L 1159 2969 
Q 1341 3281 1617 3432 
Q 1894 3584 2278 3584 
Q 2916 3584 3314 3078 
Q 3713 2572 3713 1747 
Q 3713 922 3314 415 
Q 2916 -91 2278 -91 
Q 1894 -91 1617 61 
Q 1341 213 1159 525 
z
M 3116 1747 
Q 3116 2381 2855 2742 
Q 2594 3103 2138 3103 
Q 1681 3103 1420 2742 
Q 1159 2381 1159 1747 
Q 1159 1113 1420 752 
Q 1681 391 2138 391 
Q 2594 391 2855 752 
Q 3116 1113 3116 1747 
z
" transform="scale(0.015625)"/>
       <path id="DejaVuSans-75" d="M 544 1381 
L 544 3500 
L 1119 3500 
L 1119 1403 
Q 1119 906 1312 657 
Q 1506 409 1894 409 
Q 2359 409 2629 706 
Q 2900 1003 2900 1516 
L 2900 3500 
L 3475 3500 
L 3475 0 
L 2900 0 
L 2900 538 
Q 2691 219 2414 64 
Q 2138 -91 1772 -91 
Q 1169 -91 856 284 
Q 544 659 544 1381 
z
M 1991 3584 
L 1991 3584 
z
" transform="scale(0.015625)"/>
       <path id="DejaVuSans-6e" d="M 3513 2113 
L 3513 0 
L 2938 0 
L 2938 2094 
Q 2938 2591 2744 2837 
Q 2550 3084 2163 3084 
Q 1697 3084 1428 2787 
Q 1159 2491 1159 1978 
L 1159 0 
L 581 0 
L 581 3500 
L 1159 3500 
L 1159 2956 
Q 1366 3272 1645 3428 
Q 1925 3584 2291 3584 
Q 2894 3584 3203 3211 
Q 3513 2838 3513 2113 
z
" transform="scale(0.015625)"/>
       <path id="DejaVuSans-64" d="M 2906 2969 
L 2906 4863 
L 3481 4863 
L 3481 0 
L 2906 0 
L 2906 525 
Q 2725 213 2448 61 
Q 2172 -91 1784 -91 
Q 1150 -91 751 415 
Q 353 922 353 1747 
Q 353 2572 751 3078 
Q 1150 3584 1784 3584 
Q 2172 3584 2448 3432 
Q 2725 3281 2906 2969 
z
M 947 1747 
Q 947 1113 1208 752 
Q 1469 391 1925 391 
Q 2381 391 2643 752 
Q 2906 1113 2906 1747 
Q 2906 2381 2643 2742 
Q 2381 3103 1925 3103 
Q 1469 3103 1208 2742 
Q 947 2381 947 1747 
z
" transform="scale(0.015625)"/>
       <path id="DejaVuSans-6d" d="M 3328 2828 
Q 3544 3216 3844 3400 
Q 4144 3584 4550 3584 
Q 5097 3584 5394 3201 
Q 5691 2819 5691 2113 
L 5691 0 
L 5113 0 
L 5113 2094 
Q 5113 2597 4934 2840 
Q 4756 3084 4391 3084 
Q 3944 3084 3684 2787 
Q 3425 2491 3425 1978 
L 3425 0 
L 2847 0 
L 2847 2094 
Q 2847 2600 2669 2842 
Q 2491 3084 2119 3084 
Q 1678 3084 1418 2786 
Q 1159 2488 1159 1978 
L 1159 0 
L 581 0 
L 581 3500 
L 1159 3500 
L 1159 2956 
Q 1356 3278 1631 3431 
Q 1906 3584 2284 3584 
Q 2666 3584 2933 3390 
Q 3200 3197 3328 2828 
z
" transform="scale(0.015625)"/>
       <path id="DejaVuSans-61" d="M 2194 1759 
Q 1497 1759 1228 1600 
Q 959 1441 959 1056 
Q 959 750 1161 570 
Q 1363 391 1709 391 
Q 2188 391 2477 730 
Q 2766 1069 2766 1631 
L 2766 1759 
L 2194 1759 
z
M 3341 1997 
L 3341 0 
L 2766 0 
L 2766 531 
Q 2569 213 2275 61 
Q 1981 -91 1556 -91 
Q 1019 -91 701 211 
Q 384 513 384 1019 
Q 384 1609 779 1909 
Q 1175 2209 1959 2209 
L 2766 2209 
L 2766 2266 
Q 2766 2663 2505 2880 
Q 2244 3097 1772 3097 
Q 1472 3097 1187 3025 
Q 903 2953 641 2809 
L 641 3341 
Q 956 3463 1253 3523 
Q 1550 3584 1831 3584 
Q 2591 3584 2966 3190 
Q 3341 2797 3341 1997 
z
" transform="scale(0.015625)"/>
       <path id="DejaVuSans-Oblique-50" d="M 1081 4666 
L 2541 4666 
Q 3178 4666 3512 4369 
Q 3847 4072 3847 3500 
Q 3847 2731 3353 2303 
Q 2859 1875 1966 1875 
L 1172 1875 
L 806 0 
L 172 0 
L 1081 4666 
z
M 1613 4147 
L 1275 2394 
L 2069 2394 
Q 2606 2394 2893 2669 
Q 3181 2944 3181 3456 
Q 3181 3784 2986 3965 
Q 2791 4147 2438 4147 
L 1613 4147 
z
" transform="scale(0.015625)"/>
      </defs>
      <use xlink:href="#DejaVuSans-66" transform="translate(0 0.015625)"/>
      <use xlink:href="#DejaVuSans-6f" transform="translate(35.205078 0.015625)"/>
      <use xlink:href="#DejaVuSans-72" transform="translate(96.386719 0.015625)"/>
      <use xlink:href="#DejaVuSans-63" transform="translate(137.5 0.015625)"/>
      <use xlink:href="#DejaVuSans-65" transform="translate(192.480469 0.015625)"/>
      <use xlink:href="#DejaVuSans-20" transform="translate(254.003906 0.015625)"/>
      <use xlink:href="#DejaVuSans-70" transform="translate(285.791016 0.015625)"/>
      <use xlink:href="#DejaVuSans-65" transform="translate(349.267578 0.015625)"/>
      <use xlink:href="#DejaVuSans-72" transform="translate(410.791016 0.015625)"/>
      <use xlink:href="#DejaVuSans-20" transform="translate(451.904297 0.015625)"/>
      <use xlink:href="#DejaVuSans-75" transform="translate(483.691406 0.015625)"/>
      <use xlink:href="#DejaVuSans-6e" transform="translate(547.070312 0.015625)"/>
      <use xlink:href="#DejaVuSans-64" transform="translate(610.449219 0.015625)"/>
      <use xlink:href="#DejaVuSans-65" transform="translate(673.925781 0.015625)"/>
      <use xlink:href="#DejaVuSans-66" transform="translate(735.449219 0.015625)"/>
      <use xlink:href="#DejaVuSans-6f" transform="translate(770.654297 0.015625)"/>
      <use xlink:href="#DejaVuSans-72" transform="translate(831.835938 0.015625)"/>
      <use xlink:href="#DejaVuSans-6d" transform="translate(872.949219 0.015625)"/>
      <use xlink:href="#DejaVuSans-65" transform="translate(970.361328 0.015625)"/>
      <use xlink:href="#DejaVuSans-64" transform="translate(1031.884766 0.015625)"/>
      <use xlink:href="#DejaVuSans-20" transform="translate(1095.361328 0.015625)"/>
      <use xlink:href="#DejaVuSans-61" transform="translate(1127.148438 0.015625)"/>
      <use xlink:href="#DejaVuSans-72" transform="translate(1188.427734 0.015625)"/>
      <use xlink:href="#DejaVuSans-65" transform="translate(1229.541016 0.015625)"/>
      <use xlink:href="#DejaVuSans-61" transform="translate(1291.064453 0.015625)"/>
      <use xlink:href="#DejaVuSans-20" transform="translate(1352.34375 0.015625)"/>
      <use xlink:href="#DejaVuSans-Oblique-50" transform="translate(1384.130859 0.015625)"/>
      <use xlink:href="#DejaVuSans-31" transform="translate(1444.433594 -16.390625)scale(0.7)"/>
      <use xlink:href="#DejaVuSans-31" transform="translate(1488.969727 -16.390625)scale(0.7)"/>
      <use xlink:href="#DejaVuSans-27f6" transform="translate(1653.134766 0.015625)"/>
     </g>
    </g>
   </g>
   <g id="line2d_25">
    <path d="M 68.590909 232.509091 
L 75.444341 227.310822 
L 82.297774 222.32887 
L 89.151206 217.558236 
L 96.004638 212.995757 
L 102.858071 208.63901 
L 109.711503 204.485356 
L 116.564935 200.531224 
L 123.418367 196.771641 
L 130.2718 193.200026 
L 137.125232 189.808201 
L 143.978664 186.586559 
L 150.832096 183.524336 
L 157.685529 180.60992 
L 164.538961 177.831167 
L 171.392393 175.175676 
L 178.245826 172.631022 
L 185.099258 170.18493 
L 191.95269 167.825397 
L 198.806122 165.540761 
L 205.659555 163.319732 
L 212.512987 161.151386 
L 219.366419 159.025133 
L 226.219852 156.930665 
L 233.073284 154.857884 
L 239.926716 152.79682 
L 246.780148 150.737538 
L 253.633581 148.670035 
L 260.487013 146.584125 
L 267.340445 144.469314 
L 274.193878 142.314669 
L 281.04731 140.108656 
L 287.900742 137.838975 
L 294.754174 135.492365 
L 301.607607 133.054371 
L 308.461039 130.509083 
L 315.314471 127.83882 
L 322.167904 125.023753 
L 329.021336 122.04144 
L 335.874768 118.866267 
L 342.7282 115.46874 
L 349.581633 111.814601 
L 356.435065 107.863705 
L 363.288497 103.56857 
L 370.141929 98.872488 
L 376.995362 93.707036 
L 383.848794 87.988739 
L 390.702226 81.614533 
L 397.555659 74.455512 
L 404.409091 66.348109 
" clip-path="url(#pa3be94a532)" style="fill: none; stroke: #1f77b4; stroke-width: 1.5; stroke-linecap: square"/>
   </g>
   <g id="line2d_26">
    <path clip-path="url(#pa3be94a532)" style="fill: none; stroke-dasharray: 5.55,2.4; stroke-dashoffset: 0; stroke: #1f77b4; stroke-width: 1.5"/>
   </g>
   <g id="line2d_27">
    <path d="M 68.590909 232.509091 
L 72.017625 227.331408 
L 75.444341 222.405366 
L 78.871058 217.716855 
L 82.297774 213.250075 
L 85.72449 208.988377 
L 89.151206 204.914997 
L 92.577922 201.013628 
L 96.004638 197.268831 
L 99.431354 193.666298 
L 102.858071 190.192977 
L 106.284787 186.837118 
L 109.711503 183.588237 
L 113.138219 180.437048 
L 116.564935 177.37536 
L 119.991651 174.39597 
L 123.418367 171.49255 
L 126.845083 168.659539 
L 130.2718 165.892041 
L 133.698516 163.185737 
L 137.125232 160.536797 
L 140.551948 157.941816 
L 143.978664 155.397741 
L 147.40538 152.901824 
L 150.832096 150.451573 
L 154.258813 148.044705 
L 157.685529 145.679118 
L 161.112245 143.352857 
L 164.538961 141.064086 
L 167.965677 138.811067 
L 171.392393 136.59214 
L 174.819109 134.405702 
L 178.245826 132.250197 
L 181.672542 130.124096 
L 185.099258 128.02589 
L 188.525974 125.954075 
L 191.95269 123.907146 
L 195.379406 121.883583 
L 198.806122 119.881844 
L 202.232839 117.900358 
L 205.659555 115.937517 
L 209.086271 113.991667 
L 212.512987 112.061099 
L 215.939703 110.144045 
L 219.366419 108.238666 
L 222.793135 106.343045 
L 226.219852 104.45518 
L 229.646568 102.57297 
L 233.073284 100.69421 
L 236.5 98.816573 
" clip-path="url(#pa3be94a532)" style="fill: none; stroke: #ff7f0e; stroke-width: 1.5; stroke-linecap: square"/>
   </g>
   <g id="line2d_28">
    <path clip-path="url(#pa3be94a532)" style="fill: none; stroke-dasharray: 5.55,2.4; stroke-dashoffset: 0; stroke: #ff7f0e; stroke-width: 1.5"/>
   </g>
   <g id="line2d_29">
    <path d="M 68.590909 232.509091 
L 75.444341 225.643709 
L 82.297774 219.184124 
L 89.151206 213.104194 
L 96.004638 207.378775 
L 102.858071 201.983479 
L 109.711503 196.894594 
L 116.564935 192.089118 
L 123.418367 187.544855 
L 130.2718 183.240517 
L 137.125232 179.155815 
L 143.978664 175.271529 
L 150.832096 171.569533 
L 157.685529 168.032793 
L 164.538961 164.645339 
L 171.392393 161.392203 
L 178.245826 158.259353 
L 185.099258 155.233601 
L 191.95269 152.302516 
L 198.806122 149.454323 
L 205.659555 146.677803 
L 212.512987 143.962196 
L 219.366419 141.297099 
L 226.219852 138.672363 
L 233.073284 136.077994 
L 239.926716 133.504049 
L 246.780148 130.940529 
L 253.633581 128.377267 
L 260.487013 125.80381 
L 267.340445 123.209291 
L 274.193878 120.582288 
L 281.04731 117.910662 
L 287.900742 115.181383 
L 294.754174 112.380319 
L 301.607607 109.491994 
L 308.461039 106.499301 
L 315.314471 103.383159 
L 322.167904 100.122095 
L 329.021336 96.691733 
L 335.874768 93.064162 
L 342.7282 89.207145 
L 349.581633 85.083111 
L 356.435065 80.647873 
L 363.288497 75.848961 
L 370.141929 70.623435 
L 376.995362 64.894975 
L 383.848794 58.569958 
L 390.702226 51.532079 
L 397.555659 43.634846 
L 404.409091 34.690909 
" clip-path="url(#pa3be94a532)" style="fill: none; stroke: #2ca02c; stroke-width: 1.5; stroke-linecap: square"/>
   </g>
   <g id="line2d_30">
    <path clip-path="url(#pa3be94a532)" style="fill: none; stroke-dasharray: 5.55,2.4; stroke-dashoffset: 0; stroke: #2ca02c; stroke-width: 1.5"/>
   </g>
   <g id="patch_3">
    <path d="M 51.8 242.4 
L 51.8 24.8 
" style="fill: none; stroke: #000000; stroke-width: 0.8; stroke-linejoin: miter; stroke-linecap: square"/>
   </g>
   <g id="patch_4">
    <path d="M 421.2 242.4 
L 421.2 24.8 
" style="fill: none; stroke: #000000; stroke-width: 0.8; stroke-linejoin: miter; stroke-linecap: square"/>
   </g>
   <g id="patch_5">
    <path d="M 51.8 242.4 
L 421.2 242.4 
" style="fill: none; stroke: #000000; stroke-width: 0.8; stroke-linejoin: miter; stroke-linecap: square"/>
   </g>
   <g id="patch_6">
    <path d="M 51.8 24.8 
L 421.2 24.8 
" style="fill: none; stroke: #000000; stroke-width: 0.8; stroke-linejoin: miter; stroke-linecap: square"/>
   </g>
   <g id="text_15">
    <!-- Material Formulation: Microsphere-Nonaffine-Miehe-Goektepe-Lulei -->
    <g transform="translate(68.510937 18.8)scale(0.1 -0.1)">
     <defs>
      <path id="DejaVuSans-4d" d="M 628 4666 
L 1569 4666 
L 2759 1491 
L 3956 4666 
L 4897 4666 
L 4897 0 
L 4281 0 
L 4281 4097 
L 3078 897 
L 2444 897 
L 1241 4097 
L 1241 0 
L 628 0 
L 628 4666 
z
" transform="scale(0.015625)"/>
      <path id="DejaVuSans-69" d="M 603 3500 
L 1178 3500 
L 1178 0 
L 603 0 
L 603 3500 
z
M 603 4863 
L 1178 4863 
L 1178 4134 
L 603 4134 
L 603 4863 
z
" transform="scale(0.015625)"/>
      <path id="DejaVuSans-6c" d="M 603 4863 
L 1178 4863 
L 1178 0 
L 603 0 
L 603 4863 
z
" transform="scale(0.015625)"/>
      <path id="DejaVuSans-46" d="M 628 4666 
L 3309 4666 
L 3309 4134 
L 1259 4134 
L 1259 2759 
L 3109 2759 
L 3109 2228 
L 1259 2228 
L 1259 0 
L 628 0 
L 628 4666 
z
" transform="scale(0.015625)"/>
      <path id="DejaVuSans-3a" d="M 750 794 
L 1409 794 
L 1409 0 
L 750 0 
L 750 794 
z
M 750 3309 
L 1409 3309 
L 1409 2516 
L 750 2516 
L 750 3309 
z
" transform="scale(0.015625)"/>
      <path id="DejaVuSans-2d" d="M 313 2009 
L 1997 2009 
L 1997 1497 
L 313 1497 
L 313 2009 
z
" transform="scale(0.015625)"/>
      <path id="DejaVuSans-4e" d="M 628 4666 
L 1478 4666 
L 3547 763 
L 3547 4666 
L 4159 4666 
L 4159 0 
L 3309 0 
L 1241 3903 
L 1241 0 
L 628 0 
L 628 4666 
z
" transform="scale(0.015625)"/>
      <path id="DejaVuSans-47" d="M 3809 666 
L 3809 1919 
L 2778 1919 
L 2778 2438 
L 4434 2438 
L 4434 434 
Q 4069 175 3628 42 
Q 3188 -91 2688 -91 
Q 1594 -91 976 548 
Q 359 1188 359 2328 
Q 359 3472 976 4111 
Q 1594 4750 2688 4750 
Q 3144 4750 3555 4637 
Q 3966 4525 4313 4306 
L 4313 3634 
Q 3963 3931 3569 4081 
Q 3175 4231 2741 4231 
Q 1884 4231 1454 3753 
Q 1025 3275 1025 2328 
Q 1025 1384 1454 906 
Q 1884 428 2741 428 
Q 3075 428 3337 486 
Q 3600 544 3809 666 
z
" transform="scale(0.015625)"/>
      <path id="DejaVuSans-6b" d="M 581 4863 
L 1159 4863 
L 1159 1991 
L 2875 3500 
L 3609 3500 
L 1753 1863 
L 3688 0 
L 2938 0 
L 1159 1709 
L 1159 0 
L 581 0 
L 581 4863 
z
" transform="scale(0.015625)"/>
      <path id="DejaVuSans-4c" d="M 628 4666 
L 1259 4666 
L 1259 531 
L 3531 531 
L 3531 0 
L 628 0 
L 628 4666 
z
" transform="scale(0.015625)"/>
     </defs>
     <use xlink:href="#DejaVuSans-4d"/>
     <use xlink:href="#DejaVuSans-61" x="86.279297"/>
     <use xlink:href="#DejaVuSans-74" x="147.558594"/>
     <use xlink:href="#DejaVuSans-65" x="186.767578"/>
     <use xlink:href="#DejaVuSans-72" x="248.291016"/>
     <use xlink:href="#DejaVuSans-69" x="289.404297"/>
     <use xlink:href="#DejaVuSans-61" x="317.1875"/>
     <use xlink:href="#DejaVuSans-6c" x="378.466797"/>
     <use xlink:href="#DejaVuSans-20" x="406.25"/>
     <use xlink:href="#DejaVuSans-46" x="438.037109"/>
     <use xlink:href="#DejaVuSans-6f" x="491.931641"/>
     <use xlink:href="#DejaVuSans-72" x="553.113281"/>
     <use xlink:href="#DejaVuSans-6d" x="592.476562"/>
     <use xlink:href="#DejaVuSans-75" x="689.888672"/>
     <use xlink:href="#DejaVuSans-6c" x="753.267578"/>
     <use xlink:href="#DejaVuSans-61" x="781.050781"/>
     <use xlink:href="#DejaVuSans-74" x="842.330078"/>
     <use xlink:href="#DejaVuSans-69" x="881.539062"/>
     <use xlink:href="#DejaVuSans-6f" x="909.322266"/>
     <use xlink:href="#DejaVuSans-6e" x="970.503906"/>
     <use xlink:href="#DejaVuSans-3a" x="1033.882812"/>
     <use xlink:href="#DejaVuSans-20" x="1067.574219"/>
     <use xlink:href="#DejaVuSans-4d" x="1099.361328"/>
     <use xlink:href="#DejaVuSans-69" x="1185.640625"/>
     <use xlink:href="#DejaVuSans-63" x="1213.423828"/>
     <use xlink:href="#DejaVuSans-72" x="1268.404297"/>
     <use xlink:href="#DejaVuSans-6f" x="1307.267578"/>
     <use xlink:href="#DejaVuSans-73" x="1368.449219"/>
     <use xlink:href="#DejaVuSans-70" x="1420.548828"/>
     <use xlink:href="#DejaVuSans-68" x="1484.025391"/>
     <use xlink:href="#DejaVuSans-65" x="1547.404297"/>
     <use xlink:href="#DejaVuSans-72" x="1608.927734"/>
     <use xlink:href="#DejaVuSans-65" x="1647.791016"/>
     <use xlink:href="#DejaVuSans-2d" x="1709.314453"/>
     <use xlink:href="#DejaVuSans-4e" x="1745.398438"/>
     <use xlink:href="#DejaVuSans-6f" x="1820.203125"/>
     <use xlink:href="#DejaVuSans-6e" x="1881.384766"/>
     <use xlink:href="#DejaVuSans-61" x="1944.763672"/>
     <use xlink:href="#DejaVuSans-66" x="2006.042969"/>
     <use xlink:href="#DejaVuSans-66" x="2041.248047"/>
     <use xlink:href="#DejaVuSans-69" x="2076.453125"/>
     <use xlink:href="#DejaVuSans-6e" x="2104.236328"/>
     <use xlink:href="#DejaVuSans-65" x="2167.615234"/>
     <use xlink:href="#DejaVuSans-2d" x="2229.138672"/>
     <use xlink:href="#DejaVuSans-4d" x="2265.222656"/>
     <use xlink:href="#DejaVuSans-69" x="2351.501953"/>
     <use xlink:href="#DejaVuSans-65" x="2379.285156"/>
     <use xlink:href="#DejaVuSans-68" x="2440.808594"/>
     <use xlink:href="#DejaVuSans-65" x="2504.1875"/>
     <use xlink:href="#DejaVuSans-2d" x="2565.710938"/>
     <use xlink:href="#DejaVuSans-47" x="2605.419922"/>
     <use xlink:href="#DejaVuSans-6f" x="2682.910156"/>
     <use xlink:href="#DejaVuSans-65" x="2744.091797"/>
     <use xlink:href="#DejaVuSans-6b" x="2805.615234"/>
     <use xlink:href="#DejaVuSans-74" x="2863.525391"/>
     <use xlink:href="#DejaVuSans-65" x="2902.734375"/>
     <use xlink:href="#DejaVuSans-70" x="2964.257812"/>
     <use xlink:href="#DejaVuSans-65" x="3027.734375"/>
     <use xlink:href="#DejaVuSans-2d" x="3089.257812"/>
     <use xlink:href="#DejaVuSans-4c" x="3125.341797"/>
     <use xlink:href="#DejaVuSans-75" x="3179.304688"/>
     <use xlink:href="#DejaVuSans-6c" x="3242.683594"/>
     <use xlink:href="#DejaVuSans-65" x="3270.466797"/>
     <use xlink:href="#DejaVuSans-69" x="3331.990234"/>
    </g>
   </g>
   <g id="legend_1">
    <g id="patch_7">
     <path d="M 58.8 76.834375 
L 129.984375 76.834375 
Q 131.984375 76.834375 131.984375 74.834375 
L 131.984375 31.8 
Q 131.984375 29.8 129.984375 29.8 
L 58.8 29.8 
Q 56.8 29.8 56.8 31.8 
L 56.8 74.834375 
Q 56.8 76.834375 58.8 76.834375 
z
" style="fill: #ffffff; opacity: 0.8; stroke: #cccccc; stroke-linejoin: miter"/>
    </g>
    <g id="line2d_31">
     <path d="M 60.8 37.898437 
L 70.8 37.898437 
L 80.8 37.898437 
" style="fill: none; stroke: #1f77b4; stroke-width: 1.5; stroke-linecap: square"/>
    </g>
    <g id="text_16">
     <!-- uniaxial -->
     <g transform="translate(88.8 41.398437)scale(0.1 -0.1)">
      <defs>
       <path id="DejaVuSans-78" d="M 3513 3500 
L 2247 1797 
L 3578 0 
L 2900 0 
L 1881 1375 
L 863 0 
L 184 0 
L 1544 1831 
L 300 3500 
L 978 3500 
L 1906 2253 
L 2834 3500 
L 3513 3500 
z
" transform="scale(0.015625)"/>
      </defs>
      <use xlink:href="#DejaVuSans-75"/>
      <use xlink:href="#DejaVuSans-6e" x="63.378906"/>
      <use xlink:href="#DejaVuSans-69" x="126.757812"/>
      <use xlink:href="#DejaVuSans-61" x="154.541016"/>
      <use xlink:href="#DejaVuSans-78" x="215.820312"/>
      <use xlink:href="#DejaVuSans-69" x="275"/>
      <use xlink:href="#DejaVuSans-61" x="302.783203"/>
      <use xlink:href="#DejaVuSans-6c" x="364.0625"/>
     </g>
    </g>
    <g id="line2d_32">
     <path d="M 60.8 52.576562 
L 70.8 52.576562 
L 80.8 52.576562 
" style="fill: none; stroke: #ff7f0e; stroke-width: 1.5; stroke-linecap: square"/>
    </g>
    <g id="text_17">
     <!-- biaxial -->
     <g transform="translate(88.8 56.076562)scale(0.1 -0.1)">
      <defs>
       <path id="DejaVuSans-62" d="M 3116 1747 
Q 3116 2381 2855 2742 
Q 2594 3103 2138 3103 
Q 1681 3103 1420 2742 
Q 1159 2381 1159 1747 
Q 1159 1113 1420 752 
Q 1681 391 2138 391 
Q 2594 391 2855 752 
Q 3116 1113 3116 1747 
z
M 1159 2969 
Q 1341 3281 1617 3432 
Q 1894 3584 2278 3584 
Q 2916 3584 3314 3078 
Q 3713 2572 3713 1747 
Q 3713 922 3314 415 
Q 2916 -91 2278 -91 
Q 1894 -91 1617 61 
Q 1341 213 1159 525 
L 1159 0 
L 581 0 
L 581 4863 
L 1159 4863 
L 1159 2969 
z
" transform="scale(0.015625)"/>
      </defs>
      <use xlink:href="#DejaVuSans-62"/>
      <use xlink:href="#DejaVuSans-69" x="63.476562"/>
      <use xlink:href="#DejaVuSans-61" x="91.259766"/>
      <use xlink:href="#DejaVuSans-78" x="152.539062"/>
      <use xlink:href="#DejaVuSans-69" x="211.71875"/>
      <use xlink:href="#DejaVuSans-61" x="239.501953"/>
      <use xlink:href="#DejaVuSans-6c" x="300.78125"/>
     </g>
    </g>
    <g id="line2d_33">
     <path d="M 60.8 67.254687 
L 70.8 67.254687 
L 80.8 67.254687 
" style="fill: none; stroke: #2ca02c; stroke-width: 1.5; stroke-linecap: square"/>
    </g>
    <g id="text_18">
     <!-- planar -->
     <g transform="translate(88.8 70.754687)scale(0.1 -0.1)">
      <use xlink:href="#DejaVuSans-70"/>
      <use xlink:href="#DejaVuSans-6c" x="63.476562"/>
      <use xlink:href="#DejaVuSans-61" x="91.259766"/>
      <use xlink:href="#DejaVuSans-6e" x="152.539062"/>
      <use xlink:href="#DejaVuSans-61" x="215.917969"/>
      <use xlink:href="#DejaVuSans-72" x="277.197266"/>
     </g>
    </g>
   </g>
  </g>
 </g>
 <defs>
  <clipPath id="pa3be94a532">
   <rect x="51.8" y="24.8" width="369.4" height="217.6"/>
  </clipPath>
 </defs>
</svg>
